<?xml version="1.0" encoding="utf-8"?>
<!DOCTYPE svg PUBLIC "-//W3C//DTD SVG 1.1//EN" "http://www.w3.org/Graphics/SVG/1.1/DTD/svg11.dtd">
<svg version="1.1" baseProfile="full"
 xmlns="http://www.w3.org/2000/svg"
 xmlns:xlink="http://www.w3.org/1999/xlink"
 xmlns:ev="http://www.w3.org/2001/xml-events" 
  height="13px" 
  width="12px" 
>
<path fill="rgb( 191, 191, 191 )"
 d="M1.53999999999996,0.998 C1.53999999999996,0.998 10.46,0.998 10.46,0.998 C11.307,0.998 12,1.691 12,2.539 C12,2.539 12,11.458 12,11.458 C12,12.305 11.307,12.999 10.46,12.999 C10.46,12.999 1.53999999999996,12.999 1.53999999999996,12.999 C0.69299999999998,12.999 0,12.305 0,11.458 C0,11.458 0,2.539 0,2.539 C0,1.691 0.69299999999998,0.998 1.53999999999996,0.998 C1.53999999999996,0.998 1.53999999999996,0.998 1.53999999999996,0.998 ZM8.74099999999999,2.332 C8.74099999999999,2.332 8.74099999999999,2.332 8.74099999999999,2.332 C8.44399999999996,2.332 8.20100000000002,2.575 8.20100000000002,2.872 C8.20100000000002,2.872 8.20100000000002,4.165 8.20100000000002,4.165 C8.20100000000002,4.462 8.44399999999996,4.705 8.74099999999999,4.705 C8.74099999999999,4.705 10.098,4.705 10.098,4.705 C10.395,4.705 10.6379999999999,4.462 10.6379999999999,4.165 C10.6379999999999,4.165 10.6379999999999,2.872 10.6379999999999,2.872 C10.6379999999999,2.575 10.395,2.332 10.098,2.332 C10.098,2.332 8.74099999999999,2.332 8.74099999999999,2.332 C8.74099999999999,2.332 8.74099999999999,2.332 8.74099999999999,2.332 ZM10.643,6.073 C10.643,6.073 10.643,6.073 10.643,6.073 C10.643,6.073 9.58699999999999,6.073 9.58699999999999,6.073 C9.6869999999999,6.4 9.74099999999999,6.745 9.74099999999999,7.103 C9.74099999999999,9.099 8.07099999999991,10.717 6.01099999999997,10.717 C3.95100000000002,10.717 2.28099999999995,9.099 2.28099999999995,7.103 C2.28099999999995,6.745 2.33500000000004,6.4 2.43499999999995,6.073 C2.43499999999995,6.073 1.33300000000008,6.073 1.33300000000008,6.073 C1.33300000000008,6.073 1.33300000000008,11.142 1.33300000000008,11.142 C1.33300000000008,11.404 1.548,11.619 1.80999999999995,11.619 C1.80999999999995,11.619 10.1659999999999,11.619 10.1659999999999,11.619 C10.4290000000001,11.619 10.643,11.404 10.643,11.142 C10.643,11.142 10.643,6.073 10.643,6.073 C10.643,6.073 10.643,6.073 10.643,6.073 ZM6.01099999999997,4.637 C6.01099999999997,4.637 6.01099999999997,4.637 6.01099999999997,4.637 C4.68000000000006,4.637 3.60100000000011,5.683 3.60100000000011,6.973 C3.60100000000011,8.262 4.68000000000006,9.308 6.01099999999997,9.308 C7.3420000000001,9.308 8.42100000000005,8.262 8.42100000000005,6.973 C8.42100000000005,5.683 7.3420000000001,4.637 6.01099999999997,4.637 C6.01099999999997,4.637 6.01099999999997,4.637 6.01099999999997,4.637 Z "/>
</svg>
