<?xml version="1.0" encoding="utf-8"?>
<!DOCTYPE svg PUBLIC "-//W3C//DTD SVG 1.1//EN" "http://www.w3.org/Graphics/SVG/1.1/DTD/svg11.dtd">
<svg version="1.1" baseProfile="full"
 xmlns="http://www.w3.org/2000/svg"
 xmlns:xlink="http://www.w3.org/1999/xlink"
 xmlns:ev="http://www.w3.org/2001/xml-events" 
  height="11px" 
  width="13px" 
>
<path fill="rgb( 191, 191, 191 )"
 d="M13,2.182 C12.521,2.383 12.0070000000001,2.518 11.4680000000001,2.579 C12.019,2.267 12.441,1.772 12.6410000000001,1.183 C12.125,1.472 11.5540000000001,1.683 10.9469999999999,1.795 C10.46,1.305 9.76700000000005,0.998 9,0.998 C7.52700000000004,0.998 6.33300000000008,2.128 6.33300000000008,3.523 C6.33300000000008,3.72 6.35699999999997,3.913 6.40200000000004,4.098 C4.18599999999992,3.993 2.22000000000003,2.987 0.90499999999997,1.46 C0.67499999999995,1.833 0.5440000000001,2.267 0.5440000000001,2.729 C0.5440000000001,3.606 1.0150000000001,4.378 1.73000000000002,4.831 C1.29299999999989,4.818 0.88200000000006,4.704 0.52199999999993,4.515 C0.52199999999993,4.526 0.52199999999993,4.536 0.52199999999993,4.547 C0.52199999999993,5.77 1.44100000000003,6.79 2.66100000000006,7.022 C2.4380000000001,7.08 2.202,7.111 1.95900000000006,7.111 C1.78700000000003,7.111 1.61999999999989,7.095 1.45700000000011,7.066 C1.79600000000005,8.068 2.78099999999995,8.798 3.94800000000009,8.819 C3.03600000000006,9.496 1.88599999999997,9.899 0.63599999999997,9.899 C0.42100000000005,9.899 0.20800000000008,9.888 0,9.864 C1.18000000000006,10.581 2.58200000000011,10.998 4.08799999999997,10.998 C8.99399999999991,10.998 11.6769999999999,7.151 11.6769999999999,3.815 C11.6769999999999,3.706 11.674,3.597 11.6690000000001,3.489 C12.1900000000001,3.133 12.6420000000001,2.689 13,2.182 C13,2.182 13,2.182 13,2.182 Z "/>
</svg>
