<?xml version="1.0" encoding="utf-8"?>
<!DOCTYPE svg PUBLIC "-//W3C//DTD SVG 1.1//EN" "http://www.w3.org/Graphics/SVG/1.1/DTD/svg11.dtd">
<svg version="1.1" baseProfile="full"
 xmlns="http://www.w3.org/2000/svg"
 xmlns:xlink="http://www.w3.org/1999/xlink"
 xmlns:ev="http://www.w3.org/2001/xml-events" 
  height="11px" 
  width="8px" 
>
<path fill="rgb( 191, 191, 191 )"
 d="M0.01900000000001,0.999 C0.01900000000001,0.999 4.5630000000001,0.999 4.5630000000001,0.999 C6.05799999999999,0.999 7.3309999999999,1.731 7.32999999999993,3.211 C7.32899999999995,4.447 6.88100000000009,4.928 5.96100000000001,5.471 C6.03999999999996,5.536 6.56700000000001,5.693 6.74399999999991,5.78 C7.02700000000004,5.92 7.19399999999996,6.061 7.38100000000009,6.251 C7.90300000000002,6.781 8,7.266 8,8.098 C8,10.028 6.13200000000006,10.998 4.33200000000011,10.998 C4.33200000000011,10.998 0,10.998 0,10.998 C0,10.998 0.01900000000001,0.999 0.01900000000001,0.999 C0.01900000000001,0.999 0.01900000000001,0.999 0.01900000000001,0.999 ZM2.48800000000006,3.626 C2.48800000000006,3.626 2.48800000000006,4.925 2.48800000000006,4.925 C3.6579999999999,4.925 4.75800000000004,5.079 4.75800000000004,3.811 C4.75800000000004,2.636 3.5139999999999,2.829 2.48700000000008,2.829 C2.48700000000008,2.829 2.48800000000006,3.626 2.48800000000006,3.626 C2.48800000000006,3.626 2.48800000000006,3.626 2.48800000000006,3.626 ZM2.48700000000008,9.158 C3.76999999999998,9.158 5.35400000000004,9.369 5.38200000000006,7.914 C5.41100000000006,6.396 3.75500000000011,6.67 2.48800000000006,6.67 C2.48800000000006,6.67 2.48700000000008,9.158 2.48700000000008,9.158 C2.48700000000008,9.158 2.48700000000008,9.158 2.48700000000008,9.158 Z "/>
</svg>
